# Blender v2.92.0 OBJ File: 'untitled.blend'
# www.blender.org
mtllib tubulacao6.mtl
o Plane.001
v 14.749939 -8.054279 -24.671700
v 14.794208 -7.745290 -24.622669
v 14.793826 -7.310417 -24.598549
v 14.748898 -6.866185 -24.605803
v 14.671461 -6.531625 -24.642488
v 14.582265 -6.396381 -24.698772
v 14.505209 -6.496693 -24.759577
v 14.460941 -6.805682 -24.808609
v 14.461322 -7.240555 -24.832727
v 14.506250 -7.684788 -24.825474
v 14.583687 -8.019348 -24.788790
v 14.672883 -8.154592 -24.732504
v 10.553757 -6.473907 -21.814610
v 10.598025 -6.164918 -21.765579
v 10.597644 -5.730045 -21.741459
v 10.552715 -5.285812 -21.748713
v 10.475279 -4.951252 -21.785398
v 10.386083 -4.816009 -21.841682
v 10.309027 -4.916321 -21.902487
v 10.264758 -5.225310 -21.951519
v 10.265140 -5.660182 -21.975637
v 10.310067 -6.104415 -21.968384
v 10.387505 -6.438975 -21.931700
v 10.476701 -6.574219 -21.875414
v 9.996572 -6.264963 -21.444263
v 10.071064 -5.968009 -21.422325
v 10.081583 -5.537477 -21.407976
v 10.025311 -5.088727 -21.405062
v 9.917325 -4.742002 -21.414362
v 9.786560 -4.590206 -21.433386
v 9.668056 -4.674013 -21.457035
v 9.593563 -4.970966 -21.478973
v 9.583044 -5.401499 -21.493322
v 9.639317 -5.850249 -21.496237
v 9.747302 -6.196974 -21.486937
v 9.878067 -6.348770 -21.467913
v 9.322187 -5.807051 -18.948872
v 9.412792 -5.518021 -18.956434
v 9.429122 -5.090346 -18.952724
v 9.366802 -4.638622 -18.938738
v 9.242531 -4.283888 -18.918221
v 9.089605 -4.121193 -18.896669
v 8.949004 -4.194133 -18.879860
v 8.858399 -4.483162 -18.872297
v 8.842070 -4.910837 -18.876007
v 8.904390 -5.362561 -18.889996
v 9.028662 -5.717296 -18.910513
v 9.181586 -5.879991 -18.932064
v 7.887363 -4.841403 -13.725634
v 7.977967 -4.552373 -13.733197
v 7.994298 -4.124699 -13.729487
v 7.931977 -3.672975 -13.715500
v 7.807706 -3.318240 -13.694982
v 7.654781 -3.155545 -13.673431
v 7.514180 -3.228485 -13.656623
v 7.423574 -3.517515 -13.649059
v 7.407246 -3.945189 -13.652769
v 7.469565 -4.396914 -13.666757
v 7.593837 -4.751648 -13.687275
v 7.746761 -4.914343 -13.708826
vt 0.000000 1.000000
vt 0.250000 1.000000
vt 0.250000 0.916667
vt 0.000000 0.916667
vt 0.000000 0.083333
vt 0.250000 0.083333
vt 0.250000 0.000000
vt 0.000000 0.000000
vt 0.000000 0.166667
vt 0.250000 0.166667
vt 0.000000 0.250000
vt 0.250000 0.250000
vt 0.000000 0.333333
vt 0.250000 0.333333
vt 0.000000 0.416667
vt 0.250000 0.416667
vt 0.000000 0.500000
vt 0.250000 0.500000
vt 0.000000 0.583333
vt 0.250000 0.583333
vt 0.000000 0.666667
vt 0.250000 0.666667
vt 0.000000 0.750000
vt 0.250000 0.750000
vt 0.000000 0.833333
vt 0.250000 0.833333
vt 0.500000 1.000000
vt 0.500000 0.916667
vt 0.500000 0.083333
vt 0.500000 0.000000
vt 0.500000 0.166667
vt 0.500000 0.250000
vt 0.500000 0.333333
vt 0.500000 0.416667
vt 0.500000 0.500000
vt 0.500000 0.583333
vt 0.500000 0.666667
vt 0.500000 0.750000
vt 0.500000 0.833333
vt 0.750000 1.000000
vt 0.750000 0.916667
vt 0.750000 0.083333
vt 0.750000 0.000000
vt 0.750000 0.166667
vt 0.750000 0.250000
vt 0.750000 0.333333
vt 0.750000 0.416667
vt 0.750000 0.500000
vt 0.750000 0.583333
vt 0.750000 0.666667
vt 0.750000 0.750000
vt 0.750000 0.833333
vt 1.000000 1.000000
vt 1.000000 0.916667
vt 1.000000 0.083333
vt 1.000000 0.000000
vt 1.000000 0.166667
vt 1.000000 0.250000
vt 1.000000 0.333333
vt 1.000000 0.416667
vt 1.000000 0.500000
vt 1.000000 0.583333
vt 1.000000 0.666667
vt 1.000000 0.750000
vt 1.000000 0.833333
vn 0.2553 -0.6370 0.7273
vn 0.4969 -0.2050 0.8432
vn 0.5504 -0.0458 0.8337
vn 0.5797 0.0719 0.8116
vn 0.6047 0.2238 0.7644
vn 0.5901 0.6095 0.5295
vn -0.2553 0.6370 -0.7273
vn -0.4969 0.2050 -0.8432
vn -0.5504 0.0458 -0.8337
vn -0.5797 -0.0719 -0.8116
vn -0.6047 -0.2238 -0.7644
vn -0.5901 -0.6095 -0.5295
vn 0.2644 -0.6197 0.7389
vn 0.4872 -0.1952 0.8512
vn 0.5322 -0.0438 0.8455
vn 0.5607 0.0676 0.8252
vn 0.5918 0.2135 0.7773
vn 0.5906 0.5955 0.5447
vn -0.2699 0.6233 -0.7339
vn -0.5105 0.1981 -0.8368
vn -0.5650 0.0432 -0.8240
vn -0.5929 -0.0711 -0.8021
vn -0.6134 -0.2182 -0.7590
vn -0.5952 -0.5972 -0.5377
vn 0.4906 -0.8234 0.2853
vn 0.9177 -0.2658 0.2952
vn 0.9641 -0.0357 0.2633
vn 0.9643 0.1226 0.2345
vn 0.9321 0.3055 0.1945
vn 0.7405 0.6674 0.0789
vn -0.4900 0.8226 -0.2883
vn -0.9144 0.2651 -0.3060
vn -0.9599 0.0359 -0.2780
vn -0.9609 -0.1219 -0.2487
vn -0.9303 -0.3048 -0.2040
vn -0.7404 -0.6672 -0.0812
vn 0.4681 -0.8370 0.2833
vn 0.9119 -0.2780 0.3019
vn 0.9617 -0.0391 0.2714
vn 0.9624 0.1253 0.2412
vn 0.9288 0.3140 0.1971
vn 0.7315 0.6776 0.0757
vn -0.4681 0.8370 -0.2833
vn -0.9119 0.2780 -0.3019
vn -0.9617 0.0391 -0.2714
vn -0.9624 -0.1253 -0.2412
vn -0.9288 -0.3140 -0.1971
vn -0.7315 -0.6776 -0.0757
usemtl Material.001
s off
f 1/1/1 13/2/1 24/3/1 12/4/1
f 2/5/2 14/6/2 13/7/2 1/8/2
f 3/9/3 15/10/3 14/6/3 2/5/3
f 4/11/4 16/12/4 15/10/4 3/9/4
f 5/13/5 17/14/5 16/12/5 4/11/5
f 6/15/6 18/16/6 17/14/6 5/13/6
f 7/17/7 19/18/7 18/16/7 6/15/7
f 8/19/8 20/20/8 19/18/8 7/17/8
f 9/21/9 21/22/9 20/20/9 8/19/9
f 10/23/10 22/24/10 21/22/10 9/21/10
f 11/25/11 23/26/11 22/24/11 10/23/11
f 12/4/12 24/3/12 23/26/12 11/25/12
f 13/2/13 25/27/13 36/28/13 24/3/13
f 14/6/14 26/29/14 25/30/14 13/7/14
f 15/10/15 27/31/15 26/29/15 14/6/15
f 16/12/16 28/32/16 27/31/16 15/10/16
f 17/14/17 29/33/17 28/32/17 16/12/17
f 18/16/18 30/34/18 29/33/18 17/14/18
f 19/18/19 31/35/19 30/34/19 18/16/19
f 20/20/20 32/36/20 31/35/20 19/18/20
f 21/22/21 33/37/21 32/36/21 20/20/21
f 22/24/22 34/38/22 33/37/22 21/22/22
f 23/26/23 35/39/23 34/38/23 22/24/23
f 24/3/24 36/28/24 35/39/24 23/26/24
f 25/27/25 37/40/25 48/41/25 36/28/25
f 26/29/26 38/42/26 37/43/26 25/30/26
f 27/31/27 39/44/27 38/42/27 26/29/27
f 28/32/28 40/45/28 39/44/28 27/31/28
f 29/33/29 41/46/29 40/45/29 28/32/29
f 30/34/30 42/47/30 41/46/30 29/33/30
f 31/35/31 43/48/31 42/47/31 30/34/31
f 32/36/32 44/49/32 43/48/32 31/35/32
f 33/37/33 45/50/33 44/49/33 32/36/33
f 34/38/34 46/51/34 45/50/34 33/37/34
f 35/39/35 47/52/35 46/51/35 34/38/35
f 36/28/36 48/41/36 47/52/36 35/39/36
f 37/40/37 49/53/37 60/54/37 48/41/37
f 38/42/38 50/55/38 49/56/38 37/43/38
f 39/44/39 51/57/39 50/55/39 38/42/39
f 40/45/40 52/58/40 51/57/40 39/44/40
f 41/46/41 53/59/41 52/58/41 40/45/41
f 42/47/42 54/60/42 53/59/42 41/46/42
f 43/48/43 55/61/43 54/60/43 42/47/43
f 44/49/44 56/62/44 55/61/44 43/48/44
f 45/50/45 57/63/45 56/62/45 44/49/45
f 46/51/46 58/64/46 57/63/46 45/50/46
f 47/52/47 59/65/47 58/64/47 46/51/47
f 48/41/48 60/54/48 59/65/48 47/52/48
